<svg xmlns="http://www.w3.org/2000/svg" xmlns:xlink="http://www.w3.org/1999/xlink" width="1180" height="610" viewBox="0 0 1180 610" fill="none" role="img" aria-label="Muhammad Zeshan developer profile banner">
<title>Muhammad Zeshan — Senior Full-Stack Engineer</title>
<defs>
<linearGradient id="accent" x1="0%" y1="0%" x2="100%" y2="100%">
<stop offset="0%" stop-color="#2563EB"><animate attributeName="stop-color" values="#2563EB;#06B6D4;#10B981;#2563EB" dur="8s" repeatCount="indefinite"/></stop>
<stop offset="50%" stop-color="#06B6D4"><animate attributeName="stop-color" values="#06B6D4;#10B981;#2563EB;#06B6D4" dur="8s" repeatCount="indefinite"/></stop>
<stop offset="100%" stop-color="#10B981"><animate attributeName="stop-color" values="#10B981;#2563EB;#06B6D4;#10B981" dur="8s" repeatCount="indefinite"/></stop>
</linearGradient>
<linearGradient id="ascii" x1="0%" y1="0%" x2="100%" y2="100%">
<stop offset="0%" stop-color="#2563EB"/><stop offset="50%" stop-color="#06B6D4"/><stop offset="100%" stop-color="#2563EB"/>
<animateTransform attributeName="gradientTransform" type="translate" values="-0.4 0;0.4 0;-0.4 0" dur="6s" repeatCount="indefinite"/>
</linearGradient>
<linearGradient id="panel" x1="0" y1="0" x2="0" y2="1"><stop offset="0%" stop-color="#F8FAFC"/><stop offset="100%" stop-color="#EEF2F7"/></linearGradient>
<linearGradient id="glass" x1="0" y1="0" x2="0" y2="1"><stop offset="0%" stop-color="#FFFFFF" stop-opacity=".7"/><stop offset="12%" stop-color="#FFFFFF" stop-opacity=".15"/><stop offset="100%" stop-color="#FFFFFF" stop-opacity="0"/></linearGradient>
<radialGradient id="gBlue" cx="50%" cy="50%" r="50%"><stop offset="0%" stop-color="#2563EB" stop-opacity=".18"/><stop offset="100%" stop-color="#2563EB" stop-opacity="0"/></radialGradient>
<radialGradient id="gViolet" cx="50%" cy="50%" r="50%"><stop offset="0%" stop-color="#06B6D4" stop-opacity=".18"/><stop offset="100%" stop-color="#06B6D4" stop-opacity="0"/></radialGradient>
<radialGradient id="gEmerald" cx="50%" cy="50%" r="50%"><stop offset="0%" stop-color="#10B981" stop-opacity=".15"/><stop offset="100%" stop-color="#10B981" stop-opacity="0"/></radialGradient>
<filter id="soft" x="-40%" y="-40%" width="180%" height="180%"><feGaussianBlur stdDeviation="3" result="b"/><feMerge><feMergeNode in="b"/><feMergeNode in="SourceGraphic"/></feMerge></filter>
<filter id="blurBig" x="-60%" y="-60%" width="220%" height="220%"><feGaussianBlur stdDeviation="55"/></filter>
<filter id="pillGlow" x="-60%" y="-60%" width="220%" height="220%"><feGaussianBlur stdDeviation="2.5" result="b"/><feMerge><feMergeNode in="b"/><feMergeNode in="SourceGraphic"/></feMerge></filter>
<filter id="noise"><feTurbulence type="fractalNoise" baseFrequency="0.9" numOctaves="2" stitchTiles="stitch"/><feColorMatrix type="saturate" values="0"/><feComponentTransfer><feFuncA type="linear" slope="0.025"/></feComponentTransfer></filter>
<clipPath id="round"><rect x="0" y="0" width="1180" height="610" rx="26"/></clipPath>
<style>.mono{font-family:ui-monospace,'SFMono-Regular','JetBrains Mono',Consolas,monospace}.sans{font-family:-apple-system,'Segoe UI',Inter,Roboto,sans-serif}.pill{transition:transform .2s}.pill:hover{transform:scale(1.08)}.pill:hover rect{filter:url(#pillGlow)}.soc{transition:opacity .2s}.soc:hover{opacity:1}</style>
</defs>
<g clip-path="url(#round)">
<rect width="1180" height="610" fill="#FFFFFF"/>
<g filter="url(#blurBig)">
<circle cx="220" cy="130" r="180" fill="url(#gViolet)"><animate attributeName="cy" values="130;180;130" dur="11s" repeatCount="indefinite"/></circle>
<circle cx="960" cy="500" r="200" fill="url(#gBlue)"><animate attributeName="cx" values="960;900;960" dur="13s" repeatCount="indefinite"/></circle>
<circle cx="600" cy="80" r="150" fill="url(#gEmerald)"><animate attributeName="cy" values="80;140;80" dur="9s" repeatCount="indefinite"/></circle>
</g>
<rect width="1180" height="610" filter="url(#noise)" opacity=".5"/>
<g fill="#2563EB" opacity=".35">
<circle cx="150" cy="500" r="1.6"><animate attributeName="cy" values="500;120;500" dur="14s" repeatCount="indefinite"/><animate attributeName="opacity" values="0;.5;0" dur="14s" repeatCount="indefinite"/></circle>
<circle cx="400" cy="560" r="1.2"><animate attributeName="cy" values="560;80;560" dur="18s" repeatCount="indefinite"/><animate attributeName="opacity" values="0;.4;0" dur="18s" repeatCount="indefinite"/></circle>
<circle cx="780" cy="580" r="1.8"><animate attributeName="cy" values="580;150;580" dur="16s" repeatCount="indefinite"/><animate attributeName="opacity" values="0;.5;0" dur="16s" repeatCount="indefinite"/></circle>
<circle cx="1050" cy="540" r="1.3"><animate attributeName="cy" values="540;100;540" dur="20s" repeatCount="indefinite"/><animate attributeName="opacity" values="0;.4;0" dur="20s" repeatCount="indefinite"/></circle>
<circle cx="1120" cy="300" r="1.1"><animate attributeName="cy" values="300;500;300" dur="15s" repeatCount="indefinite"/><animate attributeName="opacity" values="0;.4;0" dur="15s" repeatCount="indefinite"/></circle>
</g>
<rect x="0" y="0" width="1180" height="3" fill="#2563EB" opacity=".08"><animate attributeName="y" values="0;610;0" dur="7s" repeatCount="indefinite"/></rect>
<rect x="24" y="24" width="424" height="562" rx="20" fill="url(#panel)" stroke="rgba(15,23,42,.08)"/>
<rect x="24" y="24" width="424" height="180" rx="20" fill="url(#glass)"/>
<circle cx="52" cy="52" r="6" fill="#FF5F56"/><circle cx="72" cy="52" r="6" fill="#FFBD2E"/><circle cx="92" cy="52" r="6" fill="#27C93F"/>
<text x="236" y="56" text-anchor="middle" class="mono" font-size="12" fill="#475569">portrait.ascii</text>
<g class="mono" fill="url(#ascii)" font-size="13" filter="url(#soft)">
<animateTransform attributeName="transform" type="translate" values="0 0;0 -6;0 0" dur="6s" repeatCount="indefinite"/>
<text x="70" y="110" xml:space="preserve">   .-''''''''-.   <animate attributeName="opacity" values="0;1" dur=".3s" begin="0.2s" fill="freeze"/></text>
<text x="70" y="130" xml:space="preserve"> .'  _      _  '. <animate attributeName="opacity" values="0;1" dur=".3s" begin="0.5s" fill="freeze"/></text>
<text x="70" y="150" xml:space="preserve">/    (o)  (o)    \<animate attributeName="opacity" values="0;1" dur=".3s" begin="0.8s" fill="freeze"/></text>
<text x="70" y="170" xml:space="preserve">|       ..       |<animate attributeName="opacity" values="0;1" dur=".3s" begin="1.1s" fill="freeze"/></text>
<text x="70" y="190" xml:space="preserve">|     (____)     |<animate attributeName="opacity" values="0;1" dur=".3s" begin="1.4s" fill="freeze"/></text>
<text x="70" y="210" xml:space="preserve"> \    '----'    / <animate attributeName="opacity" values="0;1" dur=".3s" begin="1.7s" fill="freeze"/></text>
<text x="70" y="230" xml:space="preserve">  '.          .'  <animate attributeName="opacity" values="0;1" dur=".3s" begin="2.0s" fill="freeze"/></text>
<text x="70" y="250" xml:space="preserve">    '-......-'    <animate attributeName="opacity" values="0;1" dur=".3s" begin="2.3s" fill="freeze"/></text>
<text x="60" y="292" xml:space="preserve">&lt;/&gt;  D E V   M O D E<animate attributeName="opacity" values="0;1" dur=".3s" begin="2.6s" fill="freeze"/></text>
<text x="60" y="330" xml:space="preserve">####################<animate attributeName="opacity" values="0;1" dur=".3s" begin="2.9s" fill="freeze"/></text>
<text x="60" y="350" xml:space="preserve">01001101 01011010 <animate attributeName="opacity" values="0;1" dur=".3s" begin="3.2s" fill="freeze"/></text>
<text x="60" y="370" xml:space="preserve">code . build . ship<animate attributeName="opacity" values="0;1" dur=".3s" begin="3.5s" fill="freeze"/></text>
<text x="60" y="390" xml:space="preserve">####################<animate attributeName="opacity" values="0;1" dur=".3s" begin="3.8s" fill="freeze"/></text>
<rect x="60" y="410" width="9" height="15" fill="#2563EB"><animate attributeName="opacity" values="1;0;1" dur="1s" repeatCount="indefinite" begin="4.1s"/></rect>
</g>
<rect x="24" y="70" width="424" height="24" fill="#2563EB" opacity=".04"><animate attributeName="y" values="70;560;70" dur="4s" repeatCount="indefinite"/></rect>
<rect x="472" y="24" width="684" height="562" rx="20" fill="url(#panel)" stroke="rgba(15,23,42,.08)"/>
<rect x="472" y="24" width="684" height="150" rx="20" fill="url(#glass)"/>
<circle cx="500" cy="52" r="6" fill="#FF5F56"/><circle cx="520" cy="52" r="6" fill="#FFBD2E"/><circle cx="540" cy="52" r="6" fill="#27C93F"/>
<text x="814" y="56" text-anchor="middle" class="mono" font-size="12" fill="#475569">~ / muhammad-zeshan — zsh</text>
<text x="508" y="112" class="sans" font-size="26" fill="#0F172A" font-weight="600" opacity="0">Hi 👋<animate attributeName="opacity" values="0;1" dur=".5s" begin="0.4s" fill="freeze"/></text>
<text x="508" y="150" class="sans" font-size="34" font-weight="800" fill="#0F172A" opacity="0">I'm <tspan fill="url(#accent)">Muhammad Zeshan</tspan><animate attributeName="opacity" values="0;1" dur=".5s" begin="0.7s" fill="freeze"/></text>
<g class="mono" font-size="20" transform="translate(508,192)">
<text fill="#475569">&gt; </text>
<text x="20" y="0" fill="#2563EB"><tspan>Senior Full-Stack Engineer</tspan><animate attributeName="opacity" values="0;1;1;1;0;0;0;0;0;0" keyTimes="0;.03;.15;.18;.20;.4;.6;.8;.9;1" dur="15s" begin="1s" repeatCount="indefinite"/></text>
<text x="20" y="0" fill="#06B6D4"><tspan>React &amp; Next.js Developer</tspan><animate attributeName="opacity" values="0;0;0;1;1;1;0;0;0;0" keyTimes="0;.18;.2;.23;.35;.38;.4;.6;.8;1" dur="15s" begin="1s" repeatCount="indefinite"/></text>
<text x="20" y="0" fill="#10B981"><tspan>Node.js &amp; NestJS Engineer</tspan><animate attributeName="opacity" values="0;0;0;0;1;1;1;0;0;0" keyTimes="0;.38;.4;.43;.45;.55;.58;.6;.8;1" dur="15s" begin="1s" repeatCount="indefinite"/></text>
<text x="20" y="0" fill="#2563EB"><tspan>Open Source Contributor</tspan><animate attributeName="opacity" values="0;0;0;0;0;0;1;1;1;0" keyTimes="0;.58;.6;.63;.65;.75;.78;.8;.83;1" dur="15s" begin="1s" repeatCount="indefinite"/></text>
<text x="20" y="0" fill="#06B6D4"><tspan>AI Enthusiast</tspan><animate attributeName="opacity" values="0;0;0;0;0;0;0;0;1;1" keyTimes="0;.78;.8;.83;.85;.9;.93;.95;.98;1" dur="15s" begin="1s" repeatCount="indefinite"/></text>
<rect x="20" y="-15" width="10" height="18" fill="#2563EB"><animate attributeName="opacity" values="1;0;1" dur="1s" repeatCount="indefinite"/><animate attributeName="x" values="20;285;20;265;20;280;20;255;20;155" dur="15s" begin="1s" repeatCount="indefinite"/></rect>
</g>
<g class="sans" font-size="15">
<text x="508" y="238" fill="#475569" opacity="0">📍 <tspan fill="#0F172A">Pakistan · open to remote</tspan><animate attributeName="opacity" values="0;1" dur=".4s" begin="1.4s" fill="freeze"/></text>
<text x="508" y="264" fill="#475569" opacity="0">💼 <tspan fill="#0F172A">Senior Full-Stack Engineer @ PieCyfer</tspan><animate attributeName="opacity" values="0;1" dur=".4s" begin="1.7s" fill="freeze"/></text>
<text x="508" y="290" fill="#475569" opacity="0">🚀 <tspan fill="#0F172A">Healthcare, SaaS &amp; real-time platforms + AI tooling</tspan><animate attributeName="opacity" values="0;1" dur=".4s" begin="2.0s" fill="freeze"/></text>
<text x="508" y="316" fill="#475569" opacity="0">🌐 <tspan fill="#2563EB">muhammad-zeshan.vercel.app</tspan><animate attributeName="opacity" values="0;1" dur=".4s" begin="2.3s" fill="freeze"/></text>
<text x="508" y="342" fill="#475569" opacity="0">✉️ <tspan fill="#2563EB">zeeshanmehar305@gmail.com</tspan><animate attributeName="opacity" values="0;1" dur=".4s" begin="2.6s" fill="freeze"/></text>
</g>
<text x="508" y="386" class="mono" font-size="12" fill="#475569" letter-spacing="2" opacity="0">SKILLS<animate attributeName="opacity" values="0;1" dur=".4s" begin="2.9s" fill="freeze"/></text>
<g transform="translate(508,398)">
<g class="pill" opacity="0"><rect x="0" y="0" width="96" height="30" rx="15" fill="rgba(37,99,235,.08)" stroke="url(#accent)"/><text x="48" y="20" text-anchor="middle" class="sans" font-size="13" fill="#0F172A">TypeScript</text><animate attributeName="opacity" values="0;1" dur=".3s" begin="3.0s" fill="freeze"/></g>
<g class="pill" opacity="0"><rect x="106" y="0" width="70" height="30" rx="15" fill="rgba(6,182,212,.08)" stroke="url(#accent)"/><text x="141" y="20" text-anchor="middle" class="sans" font-size="13" fill="#0F172A">React</text><animate attributeName="opacity" values="0;1" dur=".3s" begin="3.1s" fill="freeze"/></g>
<g class="pill" opacity="0"><rect x="186" y="0" width="78" height="30" rx="15" fill="rgba(16,185,129,.08)" stroke="url(#accent)"/><text x="225" y="20" text-anchor="middle" class="sans" font-size="13" fill="#0F172A">Next.js</text><animate attributeName="opacity" values="0;1" dur=".3s" begin="3.2s" fill="freeze"/></g>
<g class="pill" opacity="0"><rect x="274" y="0" width="82" height="30" rx="15" fill="rgba(37,99,235,.08)" stroke="url(#accent)"/><text x="315" y="20" text-anchor="middle" class="sans" font-size="13" fill="#0F172A">Node.js</text><animate attributeName="opacity" values="0;1" dur=".3s" begin="3.3s" fill="freeze"/></g>
<g class="pill" opacity="0"><rect x="366" y="0" width="78" height="30" rx="15" fill="rgba(6,182,212,.08)" stroke="url(#accent)"/><text x="405" y="20" text-anchor="middle" class="sans" font-size="13" fill="#0F172A">NestJS</text><animate attributeName="opacity" values="0;1" dur=".3s" begin="3.4s" fill="freeze"/></g>
<g class="pill" opacity="0"><rect x="0" y="40" width="86" height="30" rx="15" fill="rgba(16,185,129,.08)" stroke="url(#accent)"/><text x="43" y="60" text-anchor="middle" class="sans" font-size="13" fill="#0F172A">GraphQL</text><animate attributeName="opacity" values="0;1" dur=".3s" begin="3.5s" fill="freeze"/></g>
<g class="pill" opacity="0"><rect x="96" y="40" width="98" height="30" rx="15" fill="rgba(37,99,235,.08)" stroke="url(#accent)"/><text x="145" y="60" text-anchor="middle" class="sans" font-size="13" fill="#0F172A">PostgreSQL</text><animate attributeName="opacity" values="0;1" dur=".3s" begin="3.6s" fill="freeze"/></g>
<g class="pill" opacity="0"><rect x="204" y="40" width="88" height="30" rx="15" fill="rgba(6,182,212,.08)" stroke="url(#accent)"/><text x="248" y="60" text-anchor="middle" class="sans" font-size="13" fill="#0F172A">MongoDB</text><animate attributeName="opacity" values="0;1" dur=".3s" begin="3.7s" fill="freeze"/></g>
<g class="pill" opacity="0"><rect x="302" y="40" width="60" height="30" rx="15" fill="rgba(16,185,129,.08)" stroke="url(#accent)"/><text x="332" y="60" text-anchor="middle" class="sans" font-size="13" fill="#0F172A">AWS</text><animate attributeName="opacity" values="0;1" dur=".3s" begin="3.8s" fill="freeze"/></g>
<g class="pill" opacity="0"><rect x="372" y="40" width="80" height="30" rx="15" fill="rgba(37,99,235,.08)" stroke="url(#accent)"/><text x="412" y="60" text-anchor="middle" class="sans" font-size="13" fill="#0F172A">Socket.io</text><animate attributeName="opacity" values="0;1" dur=".3s" begin="3.9s" fill="freeze"/></g>
</g>
<g transform="translate(508,506)">
<a xlink:href="https://github.com/zeeshan0007"><g class="soc" opacity=".7"><circle cx="15" cy="15" r="15" fill="rgba(15,23,42,.03)" stroke="url(#accent)"/><path d="M15 7a8 8 0 0 0-2.5 15.6c.4.1.5-.2.5-.4v-1.4c-2.2.5-2.7-1-2.7-1-.4-1-.9-1.2-.9-1.2-.7-.5.1-.5.1-.5.8.1 1.2.8 1.2.8.7 1.2 1.9.9 2.4.7.1-.5.3-.9.5-1.1-1.8-.2-3.6-.9-3.6-3.9 0-.9.3-1.6.8-2.1-.1-.2-.4-1 .1-2.1 0 0 .7-.2 2.2.8a7.5 7.5 0 0 1 4 0c1.5-1 2.2-.8 2.2-.8.5 1.1.2 1.9.1 2.1.5.5.8 1.2.8 2.1 0 3-1.8 3.7-3.6 3.9.3.3.6.8.6 1.6v2.2c0 .2.1.5.6.4A8 8 0 0 0 15 7z" fill="#0F172A"/></g></a>
<a xlink:href="https://linkedin.com/in/zeshan-mern-developer"><g class="soc" opacity=".7" transform="translate(46,0)"><circle cx="15" cy="15" r="15" fill="rgba(15,23,42,.03)" stroke="url(#accent)"/><path d="M10 12h2.6v8H10zM11.3 8a1.5 1.5 0 1 1 0 3 1.5 1.5 0 0 1 0-3zM14 12h2.5v1.1c.35-.66 1.2-1.35 2.5-1.35 2.67 0 3 1.76 3 4V20h-2.6v-3.8c0-.9 0-2.06-1.25-2.06-1.26 0-1.45.98-1.45 2v3.86H14z" fill="#0F172A"/></g></a>
<a xlink:href="mailto:zeeshanmehar305@gmail.com"><g class="soc" opacity=".7" transform="translate(92,0)"><circle cx="15" cy="15" r="15" fill="rgba(15,23,42,.03)" stroke="url(#accent)"/><path d="M8 11h14v8H8z" fill="none" stroke="#0F172A" stroke-width="1.4"/><path d="M8 11l7 5 7-5" fill="none" stroke="#0F172A" stroke-width="1.4"/></g></a>
<a xlink:href="https://muhammad-zeshan.vercel.app"><g class="soc" opacity=".7" transform="translate(138,0)"><circle cx="15" cy="15" r="15" fill="rgba(15,23,42,.03)" stroke="url(#accent)"/><circle cx="15" cy="15" r="7" fill="none" stroke="#0F172A" stroke-width="1.4"/><path d="M8 15h14M15 8c2 2 2 12 0 14M15 8c-2 2-2 12 0 14" fill="none" stroke="#0F172A" stroke-width="1.4"/></g></a>
</g>
<rect x="2" y="2" width="1176" height="606" rx="25" fill="none" stroke="url(#accent)" stroke-width="1.5" opacity=".35"/>
</g>
</svg>
